<svg width="40" height="38" viewBox="0 0 40 38" fill="none" xmlns="http://www.w3.org/2000/svg">
<path d="M19.5516 1.03827C19.735 0.666646 20.265 0.666646 20.4484 1.03827L25.7846 11.8507C26.0031 12.2934 26.4254 12.6002 26.914 12.6712L38.8462 14.4051C39.2563 14.4647 39.42 14.9686 39.1233 15.2579L30.4891 23.6742C30.1356 24.0188 29.9742 24.5153 30.0577 25.0019L32.0959 36.8858C32.166 37.2943 31.7373 37.6058 31.3705 37.4129L20.698 31.8021C20.261 31.5723 19.739 31.5723 19.302 31.8021L8.62953 37.4129C8.26271 37.6058 7.834 37.2943 7.90405 36.8858L9.94231 25.0019C10.0258 24.5153 9.86445 24.0188 9.51091 23.6742L0.876713 15.2579C0.579955 14.9686 0.743709 14.4647 1.15382 14.4051L13.086 12.6712C13.5746 12.6002 13.9969 12.2934 14.2154 11.8507L19.5516 1.03827Z" stroke="black"/>
</svg>
