<svg width="34" height="24" viewBox="0 0 34 24" fill="none" xmlns="http://www.w3.org/2000/svg">
<path d="M7.51562 12.3594C7.21354 12.3594 6.76562 12.4688 6.17188 12.6875L4.85938 11.5312L9.92188 3.20312H1.51562L2.60938 0.703125H14.2969L8.92188 9.98438C10.4427 10.2135 11.7865 10.8958 12.9531 12.0312C14.3281 13.3646 15.0156 15 15.0156 16.9375V16.9844C15.0156 18.9635 14.3385 20.625 12.9844 21.9688C11.6198 23.3229 9.95833 24 8 24C6.02083 24 4.35938 23.3229 3.01562 21.9688C1.64062 20.5729 0.953125 18.9323 0.953125 17.0469V16.8438L3.45312 15.75V17.0938C3.45312 18.3438 3.90104 19.4062 4.79688 20.2812C5.69271 21.1667 6.76042 21.6094 8 21.6094C9.26042 21.6094 10.3333 21.1667 11.2188 20.2812C12.1042 19.3854 12.5469 18.3177 12.5469 17.0781C12.5469 15.776 12.1198 14.7188 11.2656 13.9062C10.3594 13.0417 9.29167 12.5365 8.0625 12.3906C7.88542 12.3698 7.70312 12.3594 7.51562 12.3594ZM21.3906 3.09375V21.2969H25.9531H25.9688C27.1979 21.2969 28.2656 20.8542 29.1719 19.9688C30.0677 19.0938 30.5156 18.0312 30.5156 16.7812V7.59375C30.5156 6.35417 30.0677 5.29167 29.1719 4.40625C28.276 3.52083 27.2083 3.07812 25.9688 3.07812H25.9531L21.3906 3.09375ZM25.9531 23.6875H18.8906V1.78125L21.3906 0.6875H25.9531H25.9688C27.9167 0.6875 29.5781 1.36979 30.9531 2.73438C32.3281 4.08854 33.0156 5.72396 33.0156 7.64062V16.7344C33.0156 18.651 32.3281 20.2917 30.9531 21.6562C29.5781 23.0104 27.9167 23.6875 25.9688 23.6875H25.9531Z" fill="black"/>
</svg>
