<svg width="50" height="66" viewBox="0 0 50 66" fill="none" xmlns="http://www.w3.org/2000/svg">
<path d="M36.7547 1.97298C35.259 5.05974 34.3998 5.37796 25.0123 6.33263C22.562 6.5872 21.4164 6.8736 19.8889 7.60551L17.9159 8.59201H10.9469H3.97778L1.97298 12.4107L0 16.1975V40.7325V65.2356H24.9805H49.9609V40.5734V15.9111L48.2425 12.2516L46.4923 8.59201H41.8781C37.1366 8.59201 36.4365 8.40107 38.123 7.51005C39.3323 6.8736 40.2551 5.79165 41.0189 4.13689C41.8462 2.32302 41.8462 1.55929 41.0507 1.36835C40.7006 1.27289 40.4142 1.08195 40.4142 0.922844C40.4142 0.700089 38.4094 0 37.8685 0C37.773 0 37.2957 0.891022 36.7547 1.97298ZM38.8868 1.1456C39.205 1.432 38.1867 4.04142 37.5184 4.64605C37.2002 4.93245 36.9138 5.34614 36.9138 5.50525C36.9138 6.14169 38.2822 4.5824 38.8868 3.24587C39.4596 1.97298 40.4142 1.40018 40.4142 2.35485C40.4142 3.85049 38.6004 6.26898 36.7865 7.22365C35.1636 8.08285 34.018 8.27378 28.7355 8.75112C23.4212 9.19663 21.3845 9.73761 20.3662 10.9787C20.1117 11.2969 19.8253 12.4743 19.7298 13.6517C19.6025 15.3065 19.4434 15.752 19.0297 15.8475C18.5524 15.9429 18.4569 15.6884 18.4569 14.1609C18.4569 13.2062 18.6797 11.8697 18.9342 11.2014C19.4116 10.0877 19.4116 10.0558 18.8706 10.565C18.4887 10.9787 18.266 11.8379 18.1705 13.5881C18.0114 15.6247 17.8841 16.0702 17.4386 16.1657C16.9294 16.2612 16.8658 16.0066 16.8658 14.4155C16.8658 10.8196 17.8205 9.26027 20.7481 7.95556C21.8619 7.47823 23.6439 7.16 27.3353 6.84178C34.3362 6.23716 36.4365 5.25067 37.5821 2.06845C37.9639 1.05013 38.4413 0.700089 38.8868 1.1456ZM16.2612 12.888C16.1975 14.2882 16.1021 15.5293 16.0066 15.6565C15.7838 16.0384 2.864 15.9748 2.864 15.5929C2.864 15.402 3.4368 14.1291 4.13689 12.7289L5.40978 10.1831L10.915 10.2468L16.3885 10.3422L16.2612 12.888ZM44.7739 10.4377C44.9648 10.565 45.6649 11.8379 46.2695 13.3017L47.3833 15.9111H34.0498H20.6845V14.5109C20.6845 12.4743 21.2254 11.2651 22.371 10.6923C23.2302 10.2786 24.9805 10.1831 33.8907 10.1831C39.6823 10.1831 44.5511 10.3104 44.7739 10.4377ZM48.0516 40.5734V63.3263L25.0441 63.2626L2.06845 63.1672L1.97298 40.8916C1.94116 28.64 1.97298 18.4251 2.06845 18.2023C2.16391 17.9159 7.09636 17.8205 25.1396 17.8205H48.0516V40.5734Z" fill="black"/>
<path d="M8.01939 21.3529C7.19202 21.7666 6.26917 22.5939 5.79184 23.3258L4.93264 24.6306V38.4732C4.93264 54.1298 4.90081 53.8434 7.38295 55.5936L8.68766 56.4846H24.9806H41.2418L42.5465 55.6254C43.3103 55.1163 44.1058 54.2252 44.5195 53.3979C45.1559 52.0295 45.1878 51.584 45.1878 38.4732V24.9488L44.2331 23.4213C42.4511 20.621 42.9284 20.6846 24.9806 20.6846C9.67415 20.6846 9.35593 20.6846 8.01939 21.3529ZM41.4327 23.1349C42.3874 23.6759 43.7239 25.9671 43.4057 26.4762C43.3103 26.6035 38.6642 26.7308 33.0635 26.7308H22.9122V25.1397V23.5486H18.298H13.6838V25.1397V26.7308H10.1833C7.22384 26.7308 6.68286 26.6672 6.68286 26.2535C6.68286 25.4261 7.57388 23.9623 8.46491 23.2622C9.29228 22.5939 9.57868 22.5939 24.8852 22.5939C39.1415 22.5939 40.5417 22.6258 41.4327 23.1349ZM13.6201 28.8629C13.5246 29.3721 13.111 29.4357 10.1833 29.4357C7.25566 29.4357 6.84197 29.3721 6.7465 28.8629C6.65104 28.3856 6.96926 28.3219 10.1833 28.3219C13.3974 28.3219 13.7156 28.3856 13.6201 28.8629ZM43.4375 28.9584C43.4375 29.3721 42.101 29.4357 33.2544 29.4357C23.7714 29.4357 23.0713 29.4039 22.9758 28.8629C22.8804 28.3538 23.4532 28.3219 33.159 28.3856C42.0374 28.4811 43.4375 28.5447 43.4375 28.9584ZM13.6838 31.8224C13.811 33.2862 13.9383 33.5726 14.4793 33.6044C17.0569 33.7317 16.866 33.6363 16.866 35.0683C16.866 36.182 17.0569 36.6275 18.0434 37.614C19.3481 38.9506 20.3028 39.1415 22.1803 38.3459C23.485 37.805 23.5486 37.7731 23.5486 38.1232C23.5486 38.5051 21.7666 39.3643 19.9527 39.8098C16.5159 40.669 15.7522 43.9785 18.6162 45.6651C20.1755 46.5561 20.9074 46.6515 21.7984 46.0151C22.2121 45.7287 23.9305 45.5059 26.7945 45.3468C30.9314 45.1241 31.186 45.1559 32.0134 45.7923C32.4907 46.1424 33.2544 46.4606 33.6999 46.4606C34.7183 46.4606 36.5003 44.9331 36.7549 43.8194C37.0413 42.7374 36.373 40.5099 35.2592 38.7915L34.3364 37.3276L29.2448 37.1367C24.6624 36.9776 24.026 37.0094 22.8167 37.5504C21.5757 38.1232 18.7753 38.4414 18.7753 37.9959C18.7753 37.9004 19.0617 37.4549 19.4118 37.0094C19.7936 36.5003 20.0482 35.7047 20.0482 34.9728V33.7317H21.4802H22.8804L22.9758 31.886L23.0713 30.0722L33.0635 29.9767C40.8599 29.913 43.1193 30.0085 43.3421 30.2949C43.7558 30.9632 43.6285 50.9157 43.183 52.1886C42.9602 52.7932 42.3238 53.5888 41.7191 54.0025L40.6372 54.7344H25.0761C7.44659 54.7344 8.05122 54.8299 6.96926 52.3159C6.36464 50.9794 6.33282 50.4066 6.52375 40.7963C6.65104 35.2592 6.77833 30.5177 6.87379 30.2949C6.96926 30.0085 7.79664 29.913 10.247 29.9767L13.5246 30.0722L13.6838 31.8224ZM34.3046 39.2688C35.3547 40.669 35.9593 42.2283 35.9593 43.4375C35.9593 43.9785 35.8957 43.9785 35.6411 43.5966C35.3865 43.2147 35.3229 43.3102 35.3229 43.9785C35.3229 44.5513 35.0365 45.0286 34.5273 45.3787C33.7954 45.856 33.6681 45.856 32.9362 45.3787C32.4907 45.0923 32.1407 44.7104 32.1407 44.5513C32.1407 44.3285 31.2178 44.2967 29.6903 44.3922C28.322 44.4876 26.0626 44.6149 24.6306 44.6786C22.8804 44.7422 21.7984 44.965 21.2256 45.3468C20.4301 45.856 20.3028 45.856 19.5709 45.3787C19.0617 45.0604 18.7435 44.5195 18.7435 43.9785C18.6798 43.2147 18.6798 43.1829 18.5526 43.8512C18.3616 44.9013 17.6934 44.5513 17.5661 43.342C17.4388 42.0691 18.648 40.8281 20.3346 40.5417C22.1803 40.2235 22.5622 40.0962 23.5805 39.237C24.8534 38.155 25.9035 37.9323 29.9131 37.9004H33.2544L34.3046 39.2688Z" fill="black"/>
<path d="M10.5009 46.4287C9.80083 47.6379 9.22803 48.7199 9.22803 48.8154C9.22803 48.9108 16.388 49.0381 25.1391 49.0699C33.8903 49.1336 41.0503 49.1336 41.0503 49.0699C41.0503 49.0063 40.5729 47.8925 39.9683 46.5878C39.1091 44.7421 38.7272 44.233 38.1863 44.233C37.8362 44.233 37.4225 44.4875 37.3271 44.7739C37.0725 45.5059 35.9905 46.5878 35.0995 47.0651C34.0494 47.6061 32.6492 47.4788 31.7582 46.7787C31.0263 46.2378 30.6126 46.1741 27.0167 46.3651C24.6936 46.4605 22.7207 46.7151 22.2115 46.9697C21.7342 47.2243 20.9704 47.4152 20.5249 47.4152C19.0293 47.4152 16.2289 45.6013 16.2289 44.6467C16.2289 44.3603 15.6561 44.233 14.0014 44.233H11.8056L10.5009 46.4287Z" fill="black"/>
<path d="M9.13291 49.8655C9.00562 49.961 8.91016 50.3429 8.91016 50.6611C8.91016 51.2021 9.61025 51.2339 24.9804 51.2339H41.0506V50.4383V49.6428H25.2031C16.4839 49.6428 9.22838 49.7382 9.13291 49.8655Z" fill="black"/>
<path d="M26.4125 38.7277C25.967 38.7913 25.2669 39.1414 24.8214 39.4914L24.0259 40.1597L26.8581 39.9687C28.4492 39.8414 29.7857 39.7142 29.8493 39.6187C29.9448 39.555 29.913 39.2686 29.8175 38.9822C29.6266 38.5049 28.3855 38.4094 26.4125 38.7277Z" fill="black"/>
<path d="M19.9843 42.2282C20.2072 42.3237 20.4938 42.2919 20.5894 42.1964C20.7168 42.1008 20.5257 42.0053 20.1754 42.0371C19.825 42.0371 19.7295 42.1327 19.9843 42.2282Z" fill="black"/>
<path d="M19.6021 43.4694C19.3157 44.1695 20.1431 45.0287 20.8432 44.7423C21.1614 44.6468 21.3206 44.2649 21.2569 43.8512C21.1296 42.9284 19.9204 42.6738 19.6021 43.4694Z" fill="black"/>
<path d="M32.9042 43.4054C32.586 44.2327 33.0315 44.9328 33.7952 44.8055C34.3362 44.7419 34.5271 44.4873 34.5271 43.9145C34.5271 43.3417 34.3362 43.0871 33.7952 43.0235C33.3815 42.9598 32.9997 43.119 32.9042 43.4054Z" fill="black"/>
<path d="M31.1855 59.9851V62.6899H38.6638H46.142V59.9851V57.2802H38.6638H31.1855V59.9851ZM39.4912 58.203L45.1237 58.2348L45.251 59.094C45.3146 59.6032 45.2828 60.3987 45.1873 60.9397L45.0282 61.8944H38.5047H31.9811L31.8856 60.176C31.7902 58.3621 32.0129 57.9802 33.1903 58.1075C33.5722 58.1394 36.4044 58.203 39.4912 58.203Z" fill="black"/>
<path d="M33.7314 59.9851C33.7314 60.3669 34.1451 60.4624 35.4817 60.4624C36.8182 60.4624 37.2319 60.3669 37.2319 59.9851C37.2319 59.6032 36.8182 59.5077 35.4817 59.5077C34.1451 59.5077 33.7314 59.6032 33.7314 59.9851Z" fill="black"/>
<path d="M39.9686 59.7932C39.7456 60.1435 40.5418 60.8441 40.8284 60.5575C40.9558 60.462 41.0514 60.1753 41.0514 59.9206C41.0514 59.4428 40.2233 59.3473 39.9686 59.7932Z" fill="black"/>
<path d="M43.469 59.7932C43.2461 60.1435 44.0423 60.8441 44.3289 60.5575C44.4563 60.462 44.5518 60.1753 44.5518 59.9206C44.5518 59.4428 43.7238 59.3473 43.469 59.7932Z" fill="black"/>
</svg>
