<svg width="121" height="20" viewBox="0 0 121 20" fill="none" xmlns="http://www.w3.org/2000/svg">
<path d="M0.58 0.5C1.96667 0.3 3.43333 0.2 4.98 0.2C6.98 0.2 8.48 0.6 9.48 1.4C10.48 2.18667 10.98 3.33333 10.98 4.84C10.98 6.50667 10.4933 7.76667 9.52 8.62C8.56 9.47333 7.13333 9.9 5.24 9.9C4.46667 9.9 3.83333 9.87333 3.34 9.82V15H0.58V0.5ZM3.34 7.66C3.84667 7.74 4.39333 7.78 4.98 7.78C6.06 7.78 6.88 7.54667 7.44 7.08C8.01333 6.6 8.3 5.92 8.3 5.04C8.3 3.26667 7.19333 2.38 4.98 2.38C4.38 2.38 3.83333 2.42 3.34 2.5V7.66ZM12.7433 4.6H15.2233L15.2633 6.6H15.3033C16.4899 5.13333 18.0833 4.4 20.0833 4.4V6.52C18.6033 6.52 17.4499 6.88 16.6233 7.6C15.8099 8.30667 15.4033 9.26 15.4033 10.46V15H12.7433V4.6ZM22.7397 5.86C23.673 4.88667 24.933 4.4 26.5197 4.4C28.1064 4.4 29.3664 4.88667 30.2997 5.86C31.233 6.83333 31.6997 8.14667 31.6997 9.8C31.6997 11.4533 31.233 12.7667 30.2997 13.74C29.3664 14.7133 28.1064 15.2 26.5197 15.2C24.933 15.2 23.673 14.7133 22.7397 13.74C21.8197 12.7667 21.3597 11.4533 21.3597 9.8C21.3597 8.14667 21.8197 6.83333 22.7397 5.86ZM26.5197 13.22C27.333 13.22 27.9664 12.9333 28.4197 12.36C28.873 11.7733 29.0997 10.92 29.0997 9.8C29.0997 8.68 28.873 7.83333 28.4197 7.26C27.9664 6.67333 27.333 6.38 26.5197 6.38C25.7197 6.38 25.093 6.67333 24.6397 7.26C24.1864 7.83333 23.9597 8.68 23.9597 9.8C23.9597 10.92 24.1864 11.7733 24.6397 12.36C25.093 12.9333 25.7197 13.22 26.5197 13.22ZM34.8283 14.64V4.6H37.5683V14.46C37.5683 16.4467 37.1416 17.8 36.2883 18.52C35.4483 19.24 33.8549 19.6 31.5083 19.6L31.3683 17.54C32.8216 17.54 33.7616 17.36 34.1883 17C34.6149 16.64 34.8283 15.8533 34.8283 14.64ZM34.8283 2.4V-1.19209e-06H37.5683V2.4H34.8283ZM42.8269 8.96H47.7069C47.6935 8.09333 47.4735 7.43333 47.0469 6.98C46.6335 6.51333 46.0469 6.28 45.2869 6.28C44.5535 6.28 43.9669 6.51333 43.5269 6.98C43.1002 7.44667 42.8669 8.10667 42.8269 8.96ZM42.8269 10.74C42.8935 11.5267 43.1935 12.1533 43.7269 12.62C44.2735 13.0733 44.9602 13.3 45.7869 13.3C46.7735 13.3 47.7535 13.0533 48.7269 12.56L49.3269 14.4C48.1269 14.9333 46.8602 15.2 45.5269 15.2C43.9535 15.2 42.6735 14.7133 41.6869 13.74C40.7135 12.7667 40.2269 11.4533 40.2269 9.8C40.2269 8.12 40.6802 6.8 41.5869 5.84C42.4935 4.88 43.7202 4.4 45.2669 4.4C46.8135 4.4 48.0135 4.86 48.8669 5.78C49.7335 6.7 50.1669 8.02 50.1669 9.74C50.1669 10.0733 50.1469 10.4067 50.1069 10.74H42.8269ZM60.1684 12.52L60.7684 14.46C59.6751 14.9533 58.5418 15.2 57.3684 15.2C55.7018 15.2 54.3618 14.7133 53.3484 13.74C52.3351 12.7667 51.8284 11.4533 51.8284 9.8C51.8284 8.10667 52.3151 6.78667 53.2884 5.84C54.2751 4.88 55.6351 4.4 57.3684 4.4C58.5418 4.4 59.6751 4.64667 60.7684 5.14L60.1684 7.12C59.3284 6.64 58.4351 6.4 57.4884 6.4C56.5418 6.4 55.8018 6.69333 55.2684 7.28C54.7484 7.86667 54.4884 8.70667 54.4884 9.8C54.4884 10.8667 54.7618 11.7067 55.3084 12.32C55.8684 12.9333 56.5951 13.24 57.4884 13.24C58.4484 13.24 59.3418 13 60.1684 12.52ZM67.6492 5H71.2292V6.94H67.6492V11.2C67.6492 11.9867 67.7492 12.52 67.9492 12.8C68.1492 13.0667 68.5092 13.2 69.0292 13.2C69.6692 13.2 70.2692 13.0867 70.8292 12.86L71.1692 14.8C70.3426 15.0667 69.4492 15.2 68.4892 15.2C67.2626 15.2 66.3692 14.9267 65.8092 14.38C65.2626 13.8333 64.9892 12.9267 64.9892 11.66V6.94H62.8292V5H64.9892V1.2H67.6492V5ZM81.098 7.12C79.9913 6.61333 78.9046 6.36 77.838 6.36C76.6113 6.36 75.998 6.72 75.998 7.44C75.998 7.78667 76.1313 8.05333 76.398 8.24C76.6646 8.42667 77.1313 8.56667 77.798 8.66C79.278 8.87333 80.338 9.26 80.978 9.82C81.618 10.3667 81.938 11.1267 81.938 12.1C81.938 13.06 81.5646 13.82 80.818 14.38C80.0846 14.9267 79.0446 15.2 77.698 15.2C76.0846 15.2 74.6513 14.8667 73.398 14.2L73.898 12.24C75.0313 12.8933 76.2513 13.22 77.558 13.22C78.718 13.22 79.298 12.8333 79.298 12.06C79.298 11.7 79.178 11.4333 78.938 11.26C78.698 11.0733 78.2313 10.92 77.538 10.8C76.0713 10.56 75.018 10.1667 74.378 9.62C73.7513 9.07333 73.438 8.33333 73.438 7.4C73.438 6.48 73.798 5.75333 74.518 5.22C75.2513 4.67333 76.3113 4.4 77.698 4.4C79.0846 4.4 80.3846 4.65333 81.598 5.16L81.098 7.12ZM98.02 12.52L98.62 14.46C97.5267 14.9533 96.3933 15.2 95.22 15.2C93.5533 15.2 92.2133 14.7133 91.2 13.74C90.1867 12.7667 89.68 11.4533 89.68 9.8C89.68 8.10667 90.1667 6.78667 91.14 5.84C92.1267 4.88 93.4867 4.4 95.22 4.4C96.3933 4.4 97.5267 4.64667 98.62 5.14L98.02 7.12C97.18 6.64 96.2867 6.4 95.34 6.4C94.3933 6.4 93.6533 6.69333 93.12 7.28C92.6 7.86667 92.34 8.70667 92.34 9.8C92.34 10.8667 92.6133 11.7067 93.16 12.32C93.72 12.9333 94.4467 13.24 95.34 13.24C96.3 13.24 97.1933 13 98.02 12.52ZM105.381 4.4C106.967 4.4 108.107 4.71333 108.801 5.34C109.494 5.95333 109.841 6.95333 109.841 8.34V12.2C109.841 13.1467 109.941 14.08 110.141 15H107.681C107.601 14.56 107.541 14.0467 107.501 13.46H107.461C107.087 14.0067 106.581 14.4333 105.941 14.74C105.314 15.0467 104.627 15.2 103.881 15.2C102.907 15.2 102.127 14.9333 101.541 14.4C100.967 13.8533 100.681 13.1 100.681 12.14C100.681 10.98 101.167 10.0533 102.141 9.36C103.127 8.65333 104.541 8.3 106.381 8.3H107.241V8.24C107.241 7.53333 107.101 7.04 106.821 6.76C106.541 6.48 106.041 6.34 105.321 6.34C104.014 6.34 102.781 6.64 101.621 7.24L101.241 5.3C102.507 4.7 103.887 4.4 105.381 4.4ZM103.121 11.94C103.121 12.3667 103.247 12.7 103.501 12.94C103.754 13.18 104.101 13.3 104.541 13.3C105.301 13.3 105.941 13.0533 106.461 12.56C106.981 12.0667 107.241 11.4467 107.241 10.7V10.02H106.381C105.327 10.02 104.521 10.2 103.961 10.56C103.401 10.9067 103.121 11.3667 103.121 11.94ZM112.704 4.6H115.184L115.224 6.6H115.264C116.451 5.13333 118.044 4.4 120.044 4.4V6.52C118.564 6.52 117.411 6.88 116.584 7.6C115.771 8.30667 115.364 9.26 115.364 10.46V15H112.704V4.6Z" fill="black"/>
</svg>
